<svg width="142" height="145" viewBox="0 0 142 145" fill="none" xmlns="http://www.w3.org/2000/svg">
<g clip-path="url(#clip0_4_17)">
<path fill-rule="evenodd" clip-rule="evenodd" d="M82.5207 40.6103C72.8343 61.6118 86.1285 71.8418 89.7784 74.2413C90.1352 72.3855 90.321 70.5089 90.3324 68.6375C100.825 78.3746 117.784 73.3613 117.784 73.3613C118.022 65.6041 116.16 58.0595 112.409 51.5748C114.467 51.3549 116.482 50.6822 118.316 49.6027C111.593 40.8827 99.0274 32.5994 82.5239 40.6048" fill="white"/>
<path fill-rule="evenodd" clip-rule="evenodd" d="M73.8169 43.1431C64.1305 64.1446 77.4247 74.3746 81.0746 76.7742C81.4324 74.9185 81.6182 73.0417 81.6286 71.1704C92.1233 80.9085 109.08 75.8941 109.08 75.8941C109.318 68.1375 107.457 60.5933 103.707 54.1087C105.765 53.8887 107.78 53.2161 109.614 52.1365C102.89 43.4136 90.3253 35.1333 73.8201 43.1377" fill="#5DB67D"/>
<path fill-rule="evenodd" clip-rule="evenodd" d="M91.3846 66.8648C91.1151 66.7052 90.808 66.6173 90.49 66.6098C90.1721 66.6022 89.8528 66.6746 89.5591 66.8208C89.2045 66.9976 88.9014 67.275 88.6879 67.6185C88.4744 67.9621 88.3592 68.3569 88.3571 68.7542C88.3658 68.7594 88.3536 69.519 88.2916 70.5197C83.3556 66.1763 77.2973 57.2519 83.968 42.1167C99.334 35.0601 110.011 43.2901 115.097 48.9529C114.188 49.2421 113.26 49.4469 112.325 49.5637C111.977 49.599 111.639 49.7284 111.345 49.9392C111.051 50.15 110.812 50.4344 110.652 50.7633C110.492 51.0914 110.418 51.4522 110.435 51.8091C110.452 52.166 110.56 52.5061 110.749 52.7955C114 58.4816 115.746 65.0142 115.823 71.7796C111.598 72.6674 99.5255 74.3611 91.6897 67.1009C91.5966 67.0113 91.4944 66.9322 91.3846 66.8648ZM88.7179 76.0281C88.9759 76.1814 89.2688 76.2683 89.5729 76.2823C89.877 76.2962 90.1842 76.2367 90.4704 76.1083C90.7703 75.9726 91.0379 75.766 91.2505 75.5055C91.4631 75.245 91.6141 74.9381 91.6908 74.6123C91.8424 73.9397 91.9579 73.2616 92.037 72.5802C103.082 79.6377 117.548 75.5197 118.219 75.3214C118.643 75.1958 119.024 74.9306 119.301 74.567C119.578 74.2035 119.735 73.7625 119.748 73.3128C119.941 66.1935 118.486 59.2291 115.503 52.9986C116.854 52.6374 118.151 52.0525 119.343 51.2677C119.578 51.105 119.78 50.8958 119.936 50.6528C120.092 50.4099 120.199 50.1389 120.251 49.8571C120.302 49.5749 120.295 49.2881 120.232 49.0156C120.168 48.743 120.049 48.491 119.882 48.2751C116.199 43.4951 102.558 28.6837 81.7672 38.7679C81.3233 38.9857 80.9615 39.3572 80.7478 39.8143C70.5992 61.8196 84.2234 73.0498 88.6437 75.9718L88.7181 76.016" fill="#6F0911"/>
<path fill-rule="evenodd" clip-rule="evenodd" d="M35.4943 100.602C33.6872 90.7426 32.147 77.5429 33.8305 66.2017C34.4689 61.9763 36.4095 57.9992 39.3603 54.869C42.311 51.7388 46.1121 49.6249 50.1911 48.8459C59.1829 46.8368 68.3883 48.1005 76.2145 52.4184C83.7522 57.221 89.2695 64.6964 91.8121 73.5514C93.0826 77.5051 93.0477 81.8544 91.7133 85.9442C90.3789 90.0339 87.817 93.6425 84.4133 96.2267C75.2636 103.136 62.9367 108.105 53.4162 111.24C51.4893 111.875 49.4795 112.101 47.512 111.904C45.5445 111.706 43.6617 111.088 41.9804 110.09C40.299 109.092 38.8554 107.735 37.7395 106.103C36.6236 104.47 35.8594 102.598 35.4943 100.602Z" fill="white"/>
<path fill-rule="evenodd" clip-rule="evenodd" d="M26.7912 103.138C24.9853 93.2766 23.4416 80.0749 25.1268 68.7347C25.7646 64.5091 27.7052 60.5314 30.656 57.401C33.6069 54.2707 37.4082 52.1572 41.4874 51.3789C50.4794 49.3686 59.6853 50.6317 67.5119 54.9496C75.0501 59.7521 80.5673 67.2284 83.1085 76.0844C84.3796 80.038 84.3452 84.3873 83.0108 88.4772C81.6763 92.5671 79.1138 96.176 75.7097 98.7597C66.5599 105.669 54.2348 110.639 44.7131 113.776C42.7862 114.411 40.7769 114.636 38.8095 114.438C36.8421 114.241 34.9589 113.624 33.2776 112.626C31.5963 111.628 30.153 110.27 29.037 108.638C27.921 107.005 27.1566 105.133 26.7912 103.138Z" fill="#EB166E"/>
<path fill-rule="evenodd" clip-rule="evenodd" d="M82.1198 57.0165C81.5988 58.2748 80.9913 59.4971 80.3024 60.6742C74.7669 69.9996 69.026 71.5695 63.8905 73.1652C62.8318 67.8928 61.4601 62.101 66.9955 52.7755C67.6993 51.6074 68.4802 50.4882 69.3326 49.4263C71.7422 50.1418 74.0475 51.1479 76.2021 52.4239C78.3532 53.7035 80.339 55.2444 82.1198 57.0165Z" fill="white"/>
<path fill-rule="evenodd" clip-rule="evenodd" d="M74.4943 59.1666C73.9716 60.4241 73.3636 61.646 72.6751 62.8232C67.1397 72.1487 61.3977 73.7155 56.2623 75.3112C55.2053 70.0398 53.8312 64.249 59.3666 54.9236C60.0708 53.7556 60.8528 52.637 61.7071 51.5764C64.1151 52.2922 66.419 53.2969 68.5731 54.5713C70.7246 55.8525 72.7115 57.3947 74.4943 59.1666Z" fill="#5DB67D"/>
<path fill-rule="evenodd" clip-rule="evenodd" d="M55.4475 99.9495C55.9773 100.263 56.6181 100.339 57.2299 100.161C57.8416 99.9826 58.3747 99.565 58.7116 98.9996L59.3935 97.8508C59.5599 97.5704 59.6728 97.2618 59.7262 96.9433C59.7796 96.6247 59.7722 96.3019 59.7045 95.9936C59.6368 95.6853 59.5104 95.3976 59.3318 95.1465C59.1533 94.8954 58.9263 94.6861 58.6641 94.5305C58.402 94.3746 58.1098 94.2755 57.8038 94.2389C57.4978 94.2022 57.184 94.2287 56.8808 94.3169C56.5777 94.4052 56.2906 94.5535 56.0365 94.7532C55.7825 94.9528 55.5662 95.1998 55.4 95.4804L54.7181 96.6291C54.382 97.1954 54.2699 97.8634 54.4067 98.4861C54.5435 99.1087 54.918 99.6352 55.4475 99.9495Z" fill="#6F0911"/>
<path fill-rule="evenodd" clip-rule="evenodd" d="M44.435 93.4127C44.9646 93.7264 45.6056 93.8026 46.2175 93.6245C46.8294 93.4465 47.3626 93.0286 47.6991 92.4628L48.381 91.314C48.7171 90.7478 48.8287 90.0794 48.692 89.4568C48.5552 88.8342 48.1811 88.308 47.6516 87.9937C47.1221 87.6793 46.4805 87.6027 45.8685 87.7808C45.2564 87.959 44.7236 88.3773 44.3875 88.9436L43.7056 90.0923C43.3706 90.6588 43.2593 91.3268 43.396 91.9491C43.5327 92.5714 43.9063 93.0975 44.435 93.4127Z" fill="#6F0911"/>
<path fill-rule="evenodd" clip-rule="evenodd" d="M68.6203 90.2935C69.1498 90.6078 69.7909 90.6842 70.403 90.506C71.0151 90.3279 71.5478 89.9095 71.8839 89.3433L72.5661 88.1941C72.7328 87.9138 72.8461 87.6057 72.8996 87.2871C72.9532 86.9684 72.9457 86.6458 72.878 86.3374C72.8102 86.029 72.6836 85.7411 72.5049 85.49C72.3262 85.239 72.0993 85.0299 71.8369 84.8745C71.3074 84.5602 70.6658 84.4835 70.0538 84.6616C69.4417 84.8398 68.9092 85.2577 68.5731 85.8239L67.8909 86.9731C67.5548 87.5394 67.4427 88.2074 67.5795 88.8301C67.7162 89.4527 68.0908 89.9792 68.6203 90.2935Z" fill="#6F0911"/>
<path fill-rule="evenodd" clip-rule="evenodd" d="M57.6116 83.7589C58.1411 84.0732 58.7822 84.1496 59.3943 83.9715C60.0063 83.7934 60.5395 83.3752 60.8756 82.809L61.5578 81.6598C61.8939 81.0936 62.0053 80.4257 61.8686 79.8031C61.7318 79.1804 61.3577 78.6542 60.8282 78.3399C60.2986 78.0256 59.6571 77.949 59.045 78.1271C58.433 78.3052 57.9004 78.7231 57.5643 79.2894L56.8822 80.4386C56.5461 81.0048 56.434 81.6729 56.5707 82.2955C56.7075 82.9181 57.082 83.4446 57.6116 83.7589Z" fill="#6F0911"/>
<path fill-rule="evenodd" clip-rule="evenodd" d="M46.6028 77.2243C47.1323 77.5387 47.7739 77.6153 48.3859 77.4372C48.998 77.2591 49.5308 76.8407 49.8669 76.2745L50.5491 75.1252C50.8852 74.559 50.997 73.8914 50.8602 73.2688C50.7235 72.6461 50.349 72.1197 49.8194 71.8054C49.5572 71.6494 49.2648 71.5502 48.9587 71.5135C48.6526 71.4768 48.3393 71.503 48.036 71.5911C47.7327 71.6792 47.4455 71.8276 47.1913 72.0271C46.937 72.2266 46.7204 72.4733 46.5539 72.7538L45.8718 73.903C45.536 74.4697 45.4245 75.138 45.5616 75.7607C45.6987 76.3834 46.0731 76.9099 46.6028 77.2243Z" fill="#6F0911"/>
<path fill-rule="evenodd" clip-rule="evenodd" d="M81.4122 79.2898C78.5875 74.8564 75.2773 70.0721 77.3565 59.5171C77.7271 57.7267 78.2534 55.9656 78.9287 54.2552C83.9701 58.1771 87.8866 63.4181 90.3107 69.4869C88.2038 73.4688 85.1303 76.8548 81.4122 79.2898Z" fill="white"/>
<path fill-rule="evenodd" clip-rule="evenodd" d="M50.1361 60.7249C50.4928 56.2947 51.9933 51.975 54.48 48.2185C60.9685 47.4395 67.4451 48.3677 73.3024 50.9155C72.1241 52.3273 70.8302 53.6327 69.436 54.8157C61.1705 61.6885 55.3775 61.0869 50.1361 60.7249Z" fill="white"/>
<path fill-rule="evenodd" clip-rule="evenodd" d="M80.1344 34.1465C80.4478 34.3322 80.8106 34.42 81.1817 34.3998C81.7043 34.3696 82.2063 34.1269 82.5769 33.7246C82.9476 33.3224 83.1565 32.7936 83.1581 32.2548C83.1864 23.4849 79.8012 16.671 72.1823 10.1586C71.792 9.82503 71.2802 9.67326 70.7591 9.73665C70.238 9.80003 69.7506 10.0735 69.4038 10.4967C69.232 10.7062 69.0996 10.9463 69.0148 11.2032C68.93 11.4601 68.894 11.729 68.9093 11.9941C68.9245 12.2592 68.9907 12.5154 69.1036 12.7483C69.2166 12.9811 69.3745 13.1862 69.568 13.3512C76.3577 19.1559 79.2451 24.8771 79.2193 32.4781C79.2179 32.8217 79.3012 33.1551 79.4615 33.4466C79.6217 33.7382 79.8526 33.9801 80.1344 34.1465Z" fill="#6F0911"/>
<path fill-rule="evenodd" clip-rule="evenodd" d="M73.7721 81.4411C70.9492 77.0086 67.6389 72.2244 69.7175 61.6666C70.0884 59.8756 70.6152 58.114 71.292 56.4035C76.3315 60.3271 80.2474 65.5683 82.6717 71.6363C80.5648 75.6191 77.491 79.0057 73.7721 81.4411Z" fill="#5DB67D"/>
<path fill-rule="evenodd" clip-rule="evenodd" d="M91.4563 53.922C91.8372 54.1472 92.289 54.2264 92.7367 54.1461C93.1844 54.0657 93.6009 53.8306 93.9169 53.4803C94.2833 53.074 94.4865 52.5431 94.4821 52.0047C94.4778 51.4663 94.266 50.9647 93.8935 50.6096C93.3793 50.1214 92.8774 49.6327 92.3845 49.1522C92.0151 48.7938 91.5141 48.6102 90.9917 48.6412C90.4694 48.6722 89.9682 48.9155 89.5979 49.3178C89.4141 49.5167 89.2679 49.7486 89.168 50.0006C89.0681 50.2527 89.0164 50.5197 89.0157 50.7864C89.0151 51.0531 89.0656 51.3145 89.1643 51.555C89.263 51.7956 89.4079 52.0106 89.5908 52.1881C90.0936 52.6796 90.6078 53.1754 91.1295 53.6705C91.2272 53.7653 91.3353 53.8487 91.4513 53.919" fill="#6F0911"/>
<path fill-rule="evenodd" clip-rule="evenodd" d="M85.079 47.4543C85.4396 47.6679 85.8647 47.7511 86.2903 47.6905C86.7159 47.63 87.1191 47.4293 87.4393 47.1188C87.8308 46.7374 88.0689 46.2198 88.1008 45.6796C88.1328 45.1394 87.956 44.6209 87.6097 44.2377C86.4378 42.9788 85.3483 41.6403 84.3469 40.2305C84.0525 39.8032 83.5988 39.524 83.0854 39.4541C82.572 39.3843 82.0404 39.5292 81.6076 39.8576C81.3934 40.0205 81.2101 40.2239 81.0679 40.4556C80.9256 40.6873 80.8272 40.9427 80.7787 41.2079C80.7301 41.473 80.7321 41.7425 80.7847 42.0007C80.8373 42.2589 80.939 42.5011 81.0846 42.7129C82.1814 44.2626 83.3757 45.7338 84.66 47.1181C84.7837 47.2528 84.9257 47.3686 85.0821 47.4616" fill="#6F0911"/>
<path fill-rule="evenodd" clip-rule="evenodd" d="M42.4961 62.8763C42.8554 58.4457 44.3566 54.1262 46.8428 50.369C53.3307 49.5911 59.8067 50.5183 65.6646 53.0632C64.486 54.4754 63.1923 55.7816 61.7989 56.9662C53.5261 63.8473 47.7398 63.2345 42.4961 62.8763Z" fill="#5DB67D"/>
<path fill-rule="evenodd" clip-rule="evenodd" d="M88.1152 69.5098C86.5649 72.212 84.4705 74.5588 81.9844 76.3795C80.3977 74.049 79.3357 71.3634 78.8703 68.5048C78.4049 65.6462 78.5472 62.6812 79.2872 59.811C79.4179 59.1368 79.598 58.4142 79.8156 57.6686C83.3525 60.9577 86.1744 64.9837 88.1152 69.5098ZM80.356 81.069C80.558 81.1886 80.7814 81.2685 81.0154 81.305C81.2748 81.3445 81.5422 81.3289 81.8019 81.2591C82.0616 81.1893 82.3081 81.0672 82.5265 80.8993L82.8402 80.659C86.7024 78.0702 89.8841 74.5022 92.057 70.3236C92.1916 70.0499 92.2675 69.7523 92.2795 69.4523C92.2915 69.1522 92.2394 68.8572 92.1265 68.588C89.5843 62.2047 85.4615 56.6962 80.1505 52.5871C79.9123 52.4059 79.633 52.2876 79.335 52.2413C79.0369 52.1949 78.7282 52.2218 78.4339 52.3201C78.1386 52.4186 77.8659 52.5851 77.6363 52.8067C77.4068 53.0283 77.2267 53.2991 77.1109 53.5974C76.3885 55.4265 75.827 57.3107 75.4339 59.226C74.547 62.8962 74.4548 66.6768 75.1631 70.2918C75.8714 73.9068 77.3626 77.265 79.5284 80.1219L79.7541 80.4762C79.9099 80.7201 80.1177 80.9223 80.3633 81.0684" fill="#6F0911"/>
<path fill-rule="evenodd" clip-rule="evenodd" d="M69.8816 51.7716C69.3244 52.3155 68.7899 52.8203 68.2567 53.2607C66.0909 55.2849 63.5558 56.83 60.8231 57.7906C58.0903 58.7512 55.2236 59.1052 52.4174 58.8287C52.825 55.7742 53.8822 52.8118 55.5119 50.1567C60.4147 49.6927 65.3004 50.2417 69.8816 51.7716ZM49.0805 62.5041C49.3264 62.6496 49.6032 62.7357 49.8919 62.7556L50.3113 62.7837C53.8568 63.3166 57.5194 63.0171 61.0323 61.9072C64.5452 60.7974 67.8198 58.9055 70.6169 56.3688C72.109 55.1064 73.4938 53.7117 74.7538 52.2027C74.9601 51.9581 75.1114 51.6709 75.196 51.3633C75.2806 51.0556 75.2963 50.736 75.2415 50.4296C75.1855 50.1247 75.061 49.8416 74.8777 49.6024C74.6944 49.3632 74.4572 49.1741 74.185 49.0505C68.0345 46.3553 61.2241 45.3742 54.4029 46.2005C54.1125 46.2302 53.8282 46.3256 53.5705 46.4798C53.3128 46.634 53.0883 46.8434 52.9126 47.0927C50.285 51.0014 48.6766 55.5033 48.2537 60.1336L48.193 60.5241C48.1498 60.7962 48.1603 61.0712 48.2234 61.3327C48.2866 61.5941 48.401 61.8367 48.5603 62.0453C48.7043 62.2333 48.8815 62.3911 49.0832 62.5111" fill="#6F0911"/>
<path fill-rule="evenodd" clip-rule="evenodd" d="M62.8449 74.9425C63.0687 75.0749 63.3186 75.1575 63.5799 75.186C63.8412 75.2146 64.1084 75.1885 64.3657 75.1086L64.7778 74.9793C69.4412 73.8845 73.7799 71.4448 77.2772 67.9507C77.4651 67.7552 77.6159 67.5257 77.7211 67.275C77.8264 67.0244 77.8841 66.7578 77.8906 66.4902C77.897 66.2227 77.852 65.9593 77.7587 65.7156C77.6654 65.472 77.5256 65.2524 77.3467 65.0697C77.1685 64.8859 76.9547 64.7426 76.7176 64.648C76.4805 64.5533 76.2245 64.5092 75.965 64.5181C75.7054 64.5271 75.4472 64.5891 75.2051 64.7004C74.9629 64.8116 74.7418 64.9699 74.5542 65.1664C71.9924 67.7706 68.8326 69.647 65.4135 70.5951C64.5447 66.8983 64.7618 62.9551 66.0377 59.2539C66.1272 58.9982 66.1678 58.73 66.1574 58.4641C66.1471 58.1982 66.0863 57.9401 65.9777 57.7045C65.8691 57.469 65.7154 57.2606 65.5251 57.0914C65.3349 56.9222 65.1117 56.7955 64.8688 56.7183C64.6261 56.6406 64.3682 56.6137 64.1097 56.6398C63.8512 56.6659 63.5972 56.7445 63.3623 56.8704C63.1274 56.9963 62.9158 57.1672 62.7403 57.3737C62.5647 57.5802 62.4286 57.8179 62.3391 58.0736C60.6665 63.0586 60.5028 68.3664 61.8708 73.2666L61.9577 73.689C62.0101 73.9536 62.1145 74.2014 62.2645 74.4175C62.4145 74.6336 62.6071 74.8133 62.8307 74.9463" fill="#6F0911"/>
<path fill-rule="evenodd" clip-rule="evenodd" d="M75.1563 54.2012C82.2885 58.7932 87.5109 65.8938 89.9346 74.294C91.064 77.8366 91.0289 81.7296 89.8352 85.3911C88.6415 89.0527 86.3528 92.2861 83.3115 94.6078C74.2072 101.484 61.7598 106.396 52.9202 109.304C51.2559 109.861 49.5178 110.061 47.8163 109.89C46.1147 109.719 44.4869 109.182 43.037 108.312C41.5789 107.456 40.3279 106.284 39.3631 104.872C38.3983 103.461 37.7409 101.839 37.433 100.111C35.7519 90.9557 34.1096 77.6754 35.7789 66.3934C36.3603 62.6117 38.1026 59.0544 40.7449 56.2527C43.3871 53.451 46.7878 51.5554 50.4384 50.8498C58.974 48.9561 67.7085 50.1403 75.1563 54.2012ZM40.925 111.87C42.8357 113.001 44.9742 113.7 47.2082 113.924C49.4421 114.149 51.7239 113.895 53.9125 113.176C63.0498 110.169 75.951 105.065 85.5109 97.8481C89.2596 94.9892 92.0814 91.0065 93.5542 86.4955C95.027 81.9844 95.0715 77.1875 93.6815 72.8218C90.9785 63.5354 85.1766 55.6972 77.2662 50.6467C69.0432 46.1209 59.3824 44.7815 49.9348 46.8571C45.4373 47.7282 41.2483 50.0648 37.9942 53.518C34.74 56.9711 32.5959 61.3552 31.8815 66.0147C30.1185 77.8651 31.8194 91.6341 33.5585 101.095C33.976 103.36 34.8456 105.485 36.1127 107.339C37.3798 109.192 39.0175 110.735 40.925 111.87Z" fill="#6F0911"/>
</g>
<defs>
<clipPath id="clip0_4_17">
<rect width="101" height="108" fill="white" transform="matrix(-0.859919 -0.510431 -0.510431 0.859919 141.978 51.5535)"/>
</clipPath>
</defs>
</svg>
